<?xml version="1.0" encoding="UTF-8" standalone="no"?>
<!-- Uploaded to: SVG Repo, www.svgrepo.com, Generator: SVG Repo Mixer Tools -->

<svg
   fill="#000000"
   version="1.1"
   id="Capa_1"
   width="32"
   height="16"
   viewBox="0 0 1.08 0.54"
   xml:space="preserve"
   sodipodi:docname="earth-globe-grid-interface-symbol-svgrepo-com.svg"
   inkscape:version="1.4.3 (0d15f75042, 2025-12-25)"
   xmlns:inkscape="http://www.inkscape.org/namespaces/inkscape"
   xmlns:sodipodi="http://sodipodi.sourceforge.net/DTD/sodipodi-0.dtd"
   xmlns="http://www.w3.org/2000/svg"
   xmlns:svg="http://www.w3.org/2000/svg"><defs
   id="defs1" /><sodipodi:namedview
   id="namedview1"
   pagecolor="#ffffff"
   bordercolor="#000000"
   borderopacity="0.25"
   inkscape:showpageshadow="2"
   inkscape:pageopacity="0.0"
   inkscape:pagecheckerboard="0"
   inkscape:deskcolor="#d1d1d1"
   inkscape:zoom="32"
   inkscape:cx="16.1875"
   inkscape:cy="8.03125"
   inkscape:window-width="1920"
   inkscape:window-height="1011"
   inkscape:window-x="0"
   inkscape:window-y="0"
   inkscape:window-maximized="1"
   inkscape:current-layer="Capa_1" />
<g
   id="g1"
   style="fill:#0b5fde;fill-opacity:1"
   transform="scale(0.04,0.02)">
	<path
   d="M 13.5,0 C 6.056,0 0,6.056 0,13.5 0,20.943 6.055,27 13.5,27 20.945,27 27,20.943 27,13.5 27,6.056 20.943,0 13.5,0 Z m 11.449,12.5 h -3.23 c -0.105,-2.387 -0.582,-4.583 -1.351,-6.434 0.396,-0.242 0.778,-0.51 1.149,-0.794 1.921,1.872 3.186,4.404 3.432,7.228 z M 13.5,25 c -0.052,0 -0.102,-0.007 -0.152,-0.008 -0.369,-0.604 -0.816,-2.114 -1.144,-4.411 0.428,-0.048 0.86,-0.081 1.296,-0.081 0.436,0 0.867,0.033 1.296,0.081 -0.327,2.297 -0.774,3.808 -1.144,4.411 C 13.601,24.993 13.551,25 13.5,25 Z m 0,-6 c -0.497,0 -0.99,0.038 -1.48,0.093 -0.138,-1.335 -0.232,-2.875 -0.26,-4.593 h 3.48 c -0.027,1.719 -0.122,3.258 -0.26,4.593 C 14.49,19.038 13.997,19 13.5,19 Z m -1.741,-6.5 c 0.027,-1.719 0.122,-3.258 0.26,-4.593 0.49,0.055 0.983,0.093 1.48,0.093 0.497,0 0.989,-0.038 1.479,-0.093 0.139,1.335 0.232,2.875 0.26,4.593 z M 13.5,6.5 C 13.064,6.5 12.633,6.467 12.204,6.419 12.531,4.122 12.978,2.611 13.348,2.008 13.398,2.007 13.448,2 13.5,2 c 0.052,0 0.102,0.007 0.152,0.008 0.37,0.604 0.816,2.114 1.144,4.411 C 14.367,6.467 13.935,6.5 13.5,6.5 Z m 1.874,-4.28 c 1.165,0.588 2.199,1.707 3.013,3.198 C 17.709,5.731 17.006,5.983 16.283,6.162 16.078,4.703 15.788,3.296 15.374,2.22 Z m 3.458,1.1 c 0.529,0.279 1.031,0.603 1.51,0.958 C 20.135,4.427 19.926,4.573 19.71,4.709 19.438,4.213 19.146,3.745 18.832,3.32 Z m -10.665,0 C 7.852,3.744 7.561,4.212 7.289,4.709 7.073,4.574 6.864,4.428 6.657,4.278 7.135,3.923 7.637,3.599 8.167,3.32 Z M 11.618,2.243 C 11.208,3.316 10.92,4.713 10.719,6.162 10.008,5.987 9.317,5.74 8.649,5.435 9.459,3.96 10.479,2.841 11.618,2.243 Z M 10.542,7.649 C 10.349,9.553 10.283,11.378 10.261,12.5 H 6.781 C 6.888,10.402 7.328,8.445 8.006,6.788 8.819,7.162 9.668,7.448 10.542,7.649 Z M 10.26,14.5 c 0.022,1.122 0.088,2.945 0.281,4.852 -0.873,0.201 -1.723,0.487 -2.537,0.86 C 7.326,18.555 6.887,16.598 6.779,14.5 Z m 0.458,6.338 c 0.201,1.449 0.489,2.846 0.899,3.919 -1.139,-0.598 -2.158,-1.718 -2.97,-3.192 0.669,-0.305 1.36,-0.551 2.071,-0.727 z M 8.167,23.68 c -0.53,-0.279 -1.032,-0.603 -1.51,-0.957 0.207,-0.149 0.416,-0.297 0.632,-0.432 0.272,0.497 0.563,0.964 0.878,1.389 z m 10.665,0 c 0.314,-0.424 0.605,-0.893 0.878,-1.389 0.216,0.135 0.425,0.282 0.632,0.432 -0.479,0.354 -0.981,0.677 -1.51,0.957 z m -3.458,1.1 c 0.414,-1.076 0.704,-2.483 0.907,-3.942 0.725,0.178 1.428,0.432 2.105,0.744 -0.813,1.491 -1.847,2.609 -3.012,3.198 z m 1.084,-5.428 c 0.192,-1.904 0.259,-3.729 0.28,-4.852 h 3.482 c -0.104,2.118 -0.529,4.075 -1.195,5.725 -0.822,-0.38 -1.683,-0.67 -2.567,-0.873 z m 0.28,-6.852 c -0.021,-1.122 -0.088,-2.946 -0.28,-4.851 0.885,-0.204 1.745,-0.494 2.567,-0.875 0.666,1.65 1.092,3.607 1.195,5.725 z M 5.482,5.271 C 5.854,5.555 6.235,5.823 6.631,6.065 5.862,7.916 5.386,10.112 5.279,12.5 H 2.05 C 2.295,9.676 3.562,7.143 5.482,5.271 Z M 2.05,14.5 h 3.229 c 0.106,2.387 0.583,4.584 1.352,6.436 -0.396,0.241 -0.777,0.51 -1.149,0.793 C 3.562,19.857 2.295,17.324 2.05,14.5 Z m 19.468,7.229 c -0.371,-0.285 -0.752,-0.553 -1.149,-0.795 0.769,-1.851 1.245,-4.047 1.351,-6.434 h 3.23 c -0.247,2.824 -1.512,5.355 -3.432,7.229 z"
   id="path1"
   style="fill:#0b5fde;fill-opacity:1" />
</g>
</svg>
